<svg width="204" height="205" viewBox="0 0 204 205" fill="none" xmlns="http://www.w3.org/2000/svg">
<path fill-rule="evenodd" clip-rule="evenodd" d="M101.667 0C45.5189 0 0 45.7055 0 102.083C0 158.461 45.5189 204.167 101.667 204.167C157.814 204.167 203.333 158.461 203.333 102.083C203.333 45.7055 157.814 0 101.667 0ZM145.735 84.822C146.546 83.8906 147.164 82.8057 147.551 81.6311C147.939 80.4565 148.089 79.2159 147.992 77.9822C147.895 76.7486 147.554 75.5469 146.988 74.4478C146.421 73.3487 145.642 72.3743 144.695 71.5821C143.748 70.7899 142.654 70.1959 141.475 69.8349C140.296 69.4739 139.057 69.3532 137.831 69.48C136.605 69.6068 135.417 69.9786 134.336 70.5733C133.256 71.168 132.304 71.9738 131.538 72.9432L91.7958 120.82L71.2314 100.162C69.4882 98.4718 67.1536 97.5364 64.7302 97.5576C62.3069 97.5787 59.9888 98.5547 58.2752 100.275C56.5615 101.996 55.5895 104.324 55.5685 106.757C55.5474 109.19 56.479 111.534 58.1626 113.285L85.8899 141.126C86.798 142.037 87.8852 142.748 89.0823 143.214C90.2794 143.68 91.5601 143.891 92.8426 143.832C94.1252 143.774 95.3816 143.447 96.5317 142.874C97.6818 142.301 98.7003 141.494 99.5224 140.504L145.735 84.822Z" fill="#00BFAF"/>
</svg>
